<svg width="47" height="30" viewBox="0 0 47 30" fill="none" xmlns="http://www.w3.org/2000/svg">
<path d="M25.8424 5.16582L27.9855 1.2943C28.1948 0.915198 28.5019 0.599157 28.8748 0.379074C29.2477 0.15899 29.6728 0.0429077 30.1057 0.0429077C30.5387 0.0429077 30.9637 0.15899 31.3366 0.379074C31.7095 0.599157 32.0167 0.915198 32.226 1.2943L46.1048 26.4022C46.3092 26.7712 46.4137 27.1872 46.4081 27.609C46.4025 28.0309 46.2869 28.444 46.0727 28.8074C45.8585 29.1708 45.5532 29.472 45.187 29.6812C44.8207 29.8904 44.4062 30.0003 43.9845 30H39.5701" fill="#ECE3E3"/>
<path d="M9.98869 5.16582L12.166 1.23158C12.3718 0.858364 12.6739 0.547195 13.0408 0.330491C13.4077 0.113788 13.826 -0.000518799 14.2521 -0.000518799C14.6781 -0.000518799 15.0964 0.113788 15.4633 0.330491C15.8302 0.547195 16.1323 0.858364 16.3381 1.23158L30.2511 26.4022C30.4555 26.7712 30.5601 27.1872 30.5544 27.609C30.5488 28.0309 30.4332 28.444 30.219 28.8074C30.0048 29.1708 29.6995 29.472 29.3333 29.6812C28.967 29.8904 28.5525 30.0003 28.1308 30H23.7164" fill="#ECE3E3"/>
<path d="M11.8667 19.8707L6.26965 30H2.42806C2.00641 29.9999 1.59207 29.8898 1.22591 29.6807C0.859757 29.4715 0.554442 29.1704 0.34009 28.8072C0.125739 28.444 0.00975934 28.0311 0.00359342 27.6093C-0.00257249 27.1876 0.101289 26.7715 0.30493 26.4021L5.77093 16.5181C5.98008 16.1383 6.28728 15.8216 6.66047 15.601C7.03366 15.3804 7.45918 15.2641 7.89264 15.2641C8.32609 15.2641 8.75161 15.3804 9.1248 15.601C9.498 15.8216 9.80519 16.1383 10.0143 16.5181L11.8667 19.8707Z" fill="#ECE3E3"/>
</svg>
