<svg width="834" height="661" viewBox="0 0 834 661" fill="none" xmlns="http://www.w3.org/2000/svg">
<path d="M161.969 560.908C130.881 516.017 129.436 454.475 155.856 389.358C182.217 324.387 235.75 257.79 310.738 205.788C385.726 153.786 466.838 127.012 536.886 125.127C607.093 123.237 664.17 146.2 695.258 191.091C726.346 235.982 727.791 297.525 701.371 362.642C675.011 427.613 621.478 494.21 546.489 546.212C471.501 598.214 390.389 624.987 320.341 626.873C250.135 628.763 193.057 605.8 161.969 560.908Z" stroke="#ECE3E3" stroke-width="30"/>
<path d="M103.868 528.232C83.8112 499.27 88.3002 451.842 121.515 394.134C154.097 337.525 211.884 275.914 287.511 223.469C363.137 171.025 441.077 138.515 505.487 127.863C571.146 117.005 617.1 129.453 637.157 158.415C657.214 187.377 652.725 234.805 619.51 292.513C586.927 349.122 529.141 410.733 453.514 463.178C377.888 515.622 299.948 548.132 235.538 558.784C169.879 569.641 123.925 557.194 103.868 528.232Z" stroke="#ECE3E3" stroke-width="30"/>
</svg>
