<svg width="276" height="661" viewBox="0 0 276 661" fill="none" xmlns="http://www.w3.org/2000/svg">
<path d="M672.031 100.092C703.119 144.983 704.564 206.525 678.144 271.642C651.783 336.613 598.25 403.21 523.262 455.212C448.274 507.214 367.162 533.988 297.114 535.873C226.907 537.763 169.83 514.8 138.742 469.909C107.654 425.018 106.209 363.475 132.629 298.358C158.989 233.387 212.522 166.79 287.511 114.788C362.499 62.7863 443.611 36.0126 513.659 34.127C583.865 32.237 640.943 55.2004 672.031 100.092Z" stroke="#ECE3E3" stroke-width="30"/>
<path d="M730.132 132.768C750.189 161.73 745.7 209.158 712.485 266.866C679.903 323.475 622.116 385.086 546.489 437.531C470.863 489.975 392.923 522.485 328.513 533.137C262.854 543.995 216.9 531.547 196.843 502.585C176.786 473.623 181.275 426.195 214.49 368.487C247.073 311.878 304.859 250.267 380.486 197.822C456.112 145.378 534.052 112.868 598.462 102.216C664.121 91.3587 710.075 103.806 730.132 132.768Z" stroke="#ECE3E3" stroke-width="30"/>
</svg>
