<svg width="745" height="752" viewBox="0 0 745 752" fill="none" xmlns="http://www.w3.org/2000/svg">
<path d="M672.031 191.092C703.119 235.983 704.564 297.525 678.144 362.642C651.783 427.613 598.25 494.21 523.262 546.212C448.274 598.214 367.162 624.988 297.114 626.873C226.907 628.763 169.83 605.8 138.742 560.909C107.654 516.018 106.209 454.475 132.629 389.358C158.989 324.387 212.522 257.79 287.511 205.788C362.499 153.786 443.611 127.013 513.659 125.127C583.865 123.237 640.943 146.2 672.031 191.092Z" stroke="#ECE3E3" stroke-width="30"/>
<path d="M730.132 223.768C750.189 252.73 745.7 300.158 712.485 357.866C679.903 414.475 622.116 476.087 546.49 528.531C470.863 580.975 392.923 613.486 328.514 624.137C262.855 634.995 216.9 622.547 196.843 593.585C176.787 564.623 181.276 517.195 214.49 459.488C247.073 402.878 304.86 341.267 380.486 288.823C456.113 236.378 534.052 203.868 598.462 193.217C664.121 182.359 710.076 194.806 730.132 223.768Z" stroke="#ECE3E3" stroke-width="30"/>
</svg>
